# xmcd
#
# Track frame offsets:
# 150
# 25873
# 49795
# 73886
# 93868
# 109873
# 128533
# 153513
# 172788
# 193746
# 216291
# 240060
# 265446
# 295896
#
# Disc length: 4204 seconds
#
#
# Revision: 0
# Processed by: cddbd v1.5.2PL0 Copyright (c) Steve Scherf et al.
# Submitted via: FreeRIP 2.95 
#
DISCID=bf106a0e
DTITLE=Gibonni - Unca fibre
DYEAR=2006
DGENRE=Pop
TTITLE0=Andeo U Tebi
TTITLE1=Vrime Da Se Pomirim Sa Svitom
TTITLE2=Kad Sam Nasamo Sa Njom
TTITLE3=Zavezanih Ociju (evo me doma)
TTITLE4=Sta Ce Meni Moja Dica Rec
TTITLE5=Hodaj
TTITLE6=Mi Svijetlimo
TTITLE7=Tija Bi Te Zaboravit
TTITLE8=Sebi Dovoljna
TTITLE9=Oslobodi Me (ako znas o cemu govorim)
TTITLE10=Vrime Da Se Pomirim Sa Svitom (acoustic)
TTITLE11=Sta Ce Meni Moja Dica Rec (bistra verzija)
TTITLE12=
TTITLE13=Sebi Dovoljna (remixed by Coco Mosquito)
EXTD=
EXTT0=
EXTT1=
EXTT2=
EXTT3=
EXTT4=
EXTT5=
EXTT6=
EXTT7=
EXTT8=
EXTT9=
EXTT10=
EXTT11=
EXTT12=
EXTT13=
PLAYORDER=
